<svg width="98" height="98" viewBox="0 0 98 98" fill="none" xmlns="http://www.w3.org/2000/svg">
<path d="M49.0002 0.0395508C21.96 0.0395508 0.0401611 21.9594 0.0401611 48.9996C0.0401611 76.0397 21.96 97.9596 49.0002 97.9596C76.0404 97.9596 97.9602 76.0397 97.9602 48.9996C97.9602 21.9594 76.0404 0.0395508 49.0002 0.0395508ZM67.8294 55.2777C67.8294 55.2777 72.1593 59.5515 73.2252 61.5354C73.2558 61.5762 73.2711 61.617 73.2813 61.6373C73.7148 62.3666 73.8168 62.9328 73.6026 63.356C73.2456 64.0599 72.0216 64.4067 71.6034 64.4373H63.9534C63.423 64.4373 62.3112 64.2996 60.9648 63.3713C59.9295 62.6472 58.9095 61.4589 57.915 60.3012C56.4309 58.5774 55.1457 57.0882 53.8503 57.0882C53.6857 57.0879 53.5222 57.1137 53.3658 57.1646C52.3866 57.4809 51.132 58.8783 51.132 62.6012C51.132 63.764 50.214 64.4322 49.5663 64.4322H46.0626C44.8692 64.4322 38.6523 64.014 33.1443 58.2051C26.4021 51.0906 20.3331 36.8208 20.2821 36.6881C19.8996 35.765 20.6901 35.2704 21.552 35.2704H29.2785C30.3087 35.2704 30.6453 35.8976 30.8799 36.4535C31.1553 37.1012 32.1651 39.6768 33.8226 42.5736C36.5103 47.2962 38.1576 49.2138 39.4785 49.2138C39.7261 49.2108 39.9694 49.1478 40.1874 49.0302C41.9112 48.0714 41.5899 41.9258 41.5134 40.6508C41.5134 40.4111 41.5083 37.9019 40.626 36.6983C39.9936 35.8262 38.9175 35.4948 38.2647 35.3723C38.5289 35.0078 38.877 34.7121 39.2796 34.5104C40.4628 33.9188 42.5946 33.8321 44.7111 33.8321H45.8892C48.1842 33.8628 48.7758 34.0107 49.6071 34.2197C51.2901 34.6227 51.3258 35.709 51.1779 39.4268C51.132 40.4826 51.0861 41.676 51.0861 43.0836C51.0861 43.3896 51.0708 43.716 51.0708 44.0627C51.0198 45.9548 50.9586 48.102 52.2948 48.9842C52.469 49.0935 52.6705 49.1518 52.8762 49.1525C53.3403 49.1525 54.7377 49.1526 58.5219 42.6603C59.6889 40.5706 60.7031 38.3991 61.5564 36.1628C61.6329 36.0302 61.8573 35.6222 62.1225 35.4641C62.3182 35.3644 62.5352 35.3136 62.7549 35.3162H71.838C72.8274 35.3162 73.5057 35.4641 73.6332 35.8466C73.8576 36.4535 73.5924 38.3049 69.4461 43.9199L67.5948 46.3629C63.8361 51.2895 63.8361 51.5394 67.8294 55.2777Z" fill="url(#paint0_linear_15_374)"/>
<defs>
<linearGradient id="paint0_linear_15_374" x1="49.0002" y1="0.0395508" x2="49.0002" y2="97.9596" gradientUnits="userSpaceOnUse">
<stop stop-color="#5FC9F3"/>
<stop offset="1" stop-color="#55ABF5"/>
</linearGradient>
</defs>
</svg>
